<svg
   xmlns="http://www.w3.org/2000/svg"
   width="1048.316"
   height="601.338"
   viewBox="0 0 277.36695 159.10402">
  <g>
    <path
       fill="#c52c04"
       d="m 79.554308,136.83182 c -31.632498,0 -57.27673,-25.64422 -57.27673,-57.276738 0,-31.63016 25.644232,-57.277505 57.27673,-57.277505 13.652868,0 26.186642,4.783451 36.027862,12.758205 L 102.4608,48.157934 143.98519,48.589678 143.42953,7.1884253 131.38752,19.230445 C 117.46422,7.2523284 99.357552,0 79.550414,0 35.614047,0 0,35.620271 0,79.551974 c 0,43.936356 35.614047,79.551966 79.550414,79.551966 27.212996,0 51.236236,-13.66456 65.579586,-34.50429 l -19.0925,-11.57287 c -10.40234,14.41894 -27.34548,23.80504 -46.483192,23.80504 m 182.499832,-48.790732 3.73917,-20.898985 3.97529,20.898985 z m 1.26561,-28.43966 -8.75017,40.642992 h 5.23936 l 1.38249,-7.828255 h 9.43833 l 1.44096,7.828255 h 5.29624 l -8.97853,-40.642992 z m -17.90404,17.268915 h -9.26843 V 59.601428 h -5.064 v 40.642992 h 5.064 V 81.30466 h 9.26843 v 18.93976 h 5.06635 V 59.601428 h -5.06635 z m -25.50084,15.834172 c -0.173,0.745797 -0.69125,3.856072 -4.31896,3.856072 -4.0283,0 -4.54888,-3.048699 -4.71956,-3.798412 -0.23067,-1.61162 -0.34836,-9.845895 -0.34836,-12.321775 0,-3.108711 0,-9.267666 0.34836,-12.20491 0.17071,-1.554733 0.51746,-5.008681 4.83567,-5.008681 4.1444,0 4.20285,3.339384 4.20285,6.103632 v 3.050244 h 4.71956 c 0.0585,-3.166371 0.0585,-5.583801 -0.40291,-7.541448 -1.03572,-4.432772 -5.18247,-5.872941 -8.5195,-5.872941 -8.34651,0 -9.38378,5.872941 -9.73135,7.657574 -0.28523,1.783861 -0.45978,3.05258 -0.45978,13.758853 0,10.132682 0.22833,11.85732 0.40289,13.010702 0.63438,3.742299 3.1656,7.426125 9.38455,7.426125 7.31157,0 8.63563,-4.085177 9.15231,-6.445738 0.34758,-1.554733 0.4029,-2.99413 0.4029,-8.464948 H 220.144 c 0,4.838004 0,5.757605 -0.22913,6.795651 M 182.48035,64.1472 h 7.71836 v 36.09722 h 5.00635 V 64.1472 h 7.71523 v -4.545772 h -20.43994 z m -8.63483,14.048749 c -1.09105,0.805827 -2.35822,0.920391 -4.60422,0.920391 h -3.39782 V 64.206423 c 5.23936,0 6.39353,0 7.65835,0.86426 1.6693,1.093387 1.84075,2.876475 1.84075,7.255451 0,3.104795 0,4.717995 -1.49706,5.869815 m -4.71956,-18.652971 h -8.28959 v 40.701442 h 5.00711 V 83.605981 c 6.56419,0 7.71447,0 9.67368,-0.746588 3.91372,-1.440187 4.83409,-5.41314 4.83409,-10.938509 0,-4.202854 0,-6.621864 -1.84152,-9.155421 -2.06987,-2.932571 -4.89177,-3.222485 -9.38377,-3.222485 m -27.74837,28.49811 3.7415,-20.898985 3.97529,20.898985 z m 1.26561,-28.43966 -8.74863,40.642992 h 5.24014 l 1.38016,-7.828255 h 9.43833 l 1.44407,7.828255 h 5.29469 l -8.98242,-40.642992 z m -12.31869,12.779257 c 0.0569,-3.166371 0.0569,-5.583801 -0.40289,-7.541448 -1.03338,-4.432772 -5.18014,-5.872941 -8.52029,-5.872941 -8.34649,0 -9.38376,5.872941 -9.729,7.657574 -0.28757,1.783861 -0.45979,3.05258 -0.45979,13.758853 0,10.132682 0.23067,11.85732 0.40134,13.010702 0.63359,3.742299 3.16559,7.426125 9.38376,7.426125 7.31157,0 8.6364,-4.085177 9.15544,-6.445738 0.34367,-1.554733 0.40133,-2.99413 0.40133,-8.464948 h -4.7211 c 0,4.838004 0,5.757605 -0.22834,6.795651 -0.17457,0.745797 -0.69203,3.856072 -4.31742,3.856072 -4.03141,0 -4.54654,-3.048699 -4.7211,-3.798412 -0.23146,-1.61162 -0.34602,-9.845895 -0.34602,-12.321775 0,-3.108711 0,-9.267666 0.34602,-12.20491 0.17456,-1.554733 0.51824,-5.008681 4.83488,-5.008681 4.14676,0 4.20364,3.339384 4.20364,6.103632 v 3.050244 z m -43.776604,4.621363 c 0.217429,-0.962472 0.437979,-2.014534 1.357571,-3.021423 0.657748,-0.70138 1.795552,-1.490048 3.418088,-1.490048 1.18223,0 2.454849,0.437196 3.284826,1.269509 0.964014,1.007645 1.138581,2.27949 1.270286,3.241962 z m 13.055132,-6.045182 c -2.934909,-3.154673 -6.877479,-3.286379 -8.235048,-3.286379 -9.027618,0 -11.74042,7.097244 -11.74042,12.61715 0,7.491586 4.774874,11.828499 11.562737,11.828499 3.680717,0 6.661602,-1.402778 8.631721,-3.241963 1.183782,-1.09495 1.970892,-2.233527 2.760342,-3.414975 l -5.081152,-2.585772 c -0.833089,1.620981 -2.104158,4.02984 -5.782538,4.02984 -3.637857,0 -5.256499,-2.846056 -5.214413,-5.694465 H 102.845 c -0.0881,-2.584209 -0.26263,-7.052826 -3.241962,-10.251935 m -32.808495,7.350538 h -3.061938 v -5.433409 h 3.029985 c 1.282754,0 3.59032,0.06621 3.59032,2.733846 0,2.634878 -2.339513,2.699563 -3.558367,2.699563 m 10.902654,-2.864778 c 0,-2.239763 -0.921933,-5.402234 -4.017383,-6.72006 -1.418361,-0.593051 -3.524075,-0.723211 -5.731882,-0.723211 h -11.59703 v 23.285241 h 7.381703 v -8.199992 h 2.17274 l 4.510689,8.199992 h 8.171144 l -5.666416,-9.386885 c 1.088702,-0.428626 2.0761,-0.791004 2.997253,-1.778398 1.680207,-1.711378 1.779182,-3.788261 1.779182,-4.676687" />
  </g>
</svg>
